<svg width="45" height="45" viewBox="0 0 45 45" fill="none" xmlns="http://www.w3.org/2000/svg">
<path fill-rule="evenodd" clip-rule="evenodd" d="M11.9658 21.3539L19.0814 24.8231C20.4497 25.4911 20.2387 27.5034 18.7608 27.8719L11.0798 29.7872C10.1222 30.0263 9.17576 29.3653 9.06326 28.3838C8.8272 26.3316 9.04613 24.2526 9.70451 22.2947C9.77888 22.0752 9.89919 21.874 10.0574 21.7046C10.2156 21.5352 10.4081 21.4015 10.6221 21.3123C10.8361 21.2232 11.0666 21.1807 11.2983 21.1876C11.53 21.1945 11.7575 21.2507 11.9658 21.3525M14.8148 36L20.1108 30.1177C21.1289 28.9856 23.0062 29.745 22.9514 31.2666L22.6758 39.1795C22.6678 39.412 22.6102 39.64 22.5069 39.8483C22.4036 40.0567 22.2569 40.2406 22.0768 40.3876C21.8966 40.5346 21.687 40.6414 21.4622 40.7008C21.2373 40.7602 21.0024 40.7709 20.7731 40.732C18.7384 40.3881 16.803 39.605 15.1017 38.437C14.9103 38.3054 14.7491 38.1344 14.6291 37.9355C14.5091 37.7366 14.433 37.5143 14.4058 37.2836C14.3787 37.0528 14.4011 36.8189 14.4716 36.5976C14.5422 36.3762 14.6592 36.1725 14.8148 36ZM27.3712 28.1728L34.8989 30.6197C35.8354 30.9234 36.2925 31.9838 35.8692 32.8725C34.9797 34.7347 33.695 36.3807 32.1047 37.6959C31.9255 37.8443 31.7166 37.9525 31.4921 38.0135C31.2676 38.0745 31.0327 38.0867 30.8031 38.0494C30.5735 38.0121 30.3545 37.9262 30.1609 37.7973C29.9672 37.6684 29.8033 37.4996 29.6803 37.3022L25.484 30.5874C24.6769 29.2964 25.9228 27.7017 27.3712 28.1728ZM35.0269 23.3705L27.4176 25.553C25.9537 25.972 24.764 24.3352 25.6148 23.0724L30.0431 16.5094C30.1726 16.3172 30.3414 16.1548 30.5385 16.033C30.7357 15.9112 30.9564 15.8328 31.1862 15.803C31.416 15.7732 31.6495 15.7927 31.8711 15.8602C32.0928 15.9277 32.2975 16.0416 32.4717 16.1944C34.0209 17.5609 35.25 19.2519 36.0717 21.1472C36.1647 21.3603 36.2111 21.5909 36.2078 21.8234C36.2045 22.0559 36.1517 22.285 36.0528 22.4955C35.9539 22.7059 35.8112 22.8928 35.6343 23.0437C35.4574 23.1946 35.2503 23.306 35.0269 23.3705ZM17.2462 4.90641C15.8765 5.27204 14.5701 5.75719 13.334 6.34641C13.1313 6.44369 12.9509 6.58183 12.8041 6.75215C12.6574 6.92246 12.5474 7.12129 12.4811 7.33613C12.4148 7.55098 12.3936 7.77721 12.4189 8.00062C12.4442 8.22403 12.5155 8.4398 12.6281 8.63438L20.0658 21.5156C20.8997 22.9613 23.1089 22.3692 23.1089 20.7V5.8261C23.1091 5.6013 23.0629 5.37886 22.9732 5.17276C22.8834 4.96666 22.752 4.78134 22.5872 4.62843C22.4224 4.47553 22.2278 4.35833 22.0155 4.2842C21.8033 4.21007 21.578 4.18061 21.3539 4.19766C19.9898 4.30594 18.6159 4.53938 17.2462 4.90641Z" fill="#9747FF"/>
</svg>
