<svg width="102" height="83" viewBox="0 0 102 83" fill="none" xmlns="http://www.w3.org/2000/svg">
<path d="M98.2747 28.2651C104.368 23.3298 101.59 17.5654 98.2747 14.7621L83.6497 2.91738C77.5072 -2.01794 70.4384 0.232566 66.9772 2.91738L58.6897 9.66888H46.0634C36.8009 9.66888 31.4384 13.6171 28.7084 18.1576L7.06341 35.6878V51.4808L3.60216 54.2446C-2.49159 59.2194 0.287155 64.9444 3.60216 67.7476L18.2272 79.5924C20.8597 81.7244 23.6872 82.5141 26.3684 82.5141C29.8297 82.5141 32.9984 81.1322 34.8997 79.5924L48.0622 68.8926H65.5634C73.8509 68.8926 78.0434 64.7075 79.5547 60.6013C85.0634 59.4168 88.0859 56.0213 89.3047 52.7048C96.8609 51.1255 99.6884 45.3216 99.6884 41.2549V29.4101H96.8122L98.2747 28.2651ZM89.9384 41.2549C89.9384 43.0316 89.0122 45.2031 85.0634 45.2031H80.1884V49.1514C80.1884 50.9281 79.2622 53.0996 75.3134 53.0996H70.4384V57.0479C70.4384 58.8246 69.5122 60.9961 65.5634 60.9961H44.0647L28.0747 73.9464C26.5634 75.0914 25.6859 74.4202 25.1497 73.9859L10.5734 62.2201C9.15966 60.9961 9.98841 60.2854 10.5247 59.8511L16.8134 54.7184V38.9254L26.5634 31.0289V37.3066C26.5634 42.084 30.4634 49.1514 41.1884 49.1514C51.9134 49.1514 55.8134 42.084 55.8134 37.3066H89.9384V41.2549ZM91.3522 22.6586L83.0647 29.4101H46.0634V37.3066C46.0634 39.0833 45.1372 41.2549 41.1884 41.2549C37.2397 41.2549 36.3134 39.0833 36.3134 37.3066V25.4619C36.3134 23.6457 37.1422 17.5654 46.0634 17.5654H62.6872L73.8022 8.56337C75.3134 7.41838 76.1909 8.08958 76.7272 8.52389L91.3034 20.2897C92.7172 21.5136 91.8884 22.2243 91.3522 22.6586Z" fill="#9747FF"/>
</svg>
