<svg width="89" height="93" viewBox="0 0 89 93" fill="none" xmlns="http://www.w3.org/2000/svg">
<path d="M44.5 0C19.9627 0 0 20.7482 0 46.2509V65.4127C0 70.1488 3.99165 74.0015 8.9 74.0015H13.35C14.5302 74.0015 15.6621 73.5142 16.4966 72.6468C17.3312 71.7795 17.8 70.603 17.8 69.3764V45.5895C17.8 44.3629 17.3312 43.1865 16.4966 42.3191C15.6621 41.4517 14.5302 40.9644 13.35 40.9644H9.3094C11.7836 23.0653 26.6021 9.25019 44.5 9.25019C62.3979 9.25019 77.2164 23.0653 79.6906 40.9644H75.65C74.4698 40.9644 73.3379 41.4517 72.5034 42.3191C71.6688 43.1865 71.2 44.3629 71.2 45.5895V74.0015C71.2 79.103 67.2083 83.2517 62.3 83.2517H53.4V78.6266H35.6V92.5019H62.3C72.1167 92.5019 80.1 84.2044 80.1 74.0015C85.0083 74.0015 89 70.1488 89 65.4127V46.2509C89 20.7482 69.0373 0 44.5 0Z" fill="#9747FF"/>
</svg>
